# xmcd
#
# Track frame offsets: 
#        183
#        12593
#        26948
#
# Disc length: 507 seconds
#
# Revision: 0
# Processed by: cddbd v1.5.2PL0 Copyright (c) Steve Scherf et al.
# Submitted via: ExactAudioCopy v0.99pb4
#
DISCID=2101f903
DTITLE=Lee Dorsey - Working In A Coalmine
DYEAR=1991
DGENRE=Blues
TTITLE0=Working In A Coalmine
TTITLE1=Everything I Do Gonh Be Funky
TTITLE2=Holy Cow
EXTD=
EXTT0=
EXTT1=
EXTT2=
PLAYORDER=
